<svg data-hmi-canvas="true" width="1280" height="800" viewBox="0 0 1280 800" class="scada-grid" style="display: block; background: rgb(10, 26, 18); cursor: default;"><defs><pattern id="grid-minor" width="10" height="10" patternUnits="userSpaceOnUse"><path d="M 10 0 L 0 0 0 10" fill="none" stroke="#1e2736" stroke-width="0.5"></path></pattern><pattern id="grid-major" width="100" height="100" patternUnits="userSpaceOnUse"><rect width="100" height="100" fill="url(#grid-minor)"></rect><path d="M 100 0 L 0 0 0 100" fill="none" stroke="#252f3f" stroke-width="1"></path></pattern></defs><image href="/greenhouse.jpg" x="0" y="0" width="1280" height="800" data-bg="1" preserveAspectRatio="xMidYMid slice"></image><style>@keyframes nxAlarmBlink{0%,49%{opacity:1}50%,100%{opacity:0.08}}</style><rect x="0" y="0" width="1280" height="800" fill="none" stroke="#374151" stroke-width="1"></rect><g><g transform="translate(0, 0)" style="cursor: grab;"><rect x="0" y="0" width="1280" height="46" rx="3" fill="rgb(3,12,8)" fill-opacity="0.1" stroke="#166534" stroke-width="1.5"></rect></g></g><g><g transform="translate(232, 22)" style="cursor: grab;"><text x="-208" y="0" font-size="20" fill="#86efac" font-weight="bold" font-style="normal" text-decoration="none" text-anchor="start" dominant-baseline="central" font-family="'Consolas','Courier New',monospace"><tspan x="-208" dy="0">🌱 SMART GREENHOUSE · 스마트 온실</tspan></text><rect x="-210" y="-15" width="420" height="30" fill="transparent"></rect></g></g><g><g transform="translate(830, 22)" style="cursor: grab;"><text x="-158" y="0" font-size="13" fill="#fde68a" font-weight="bold" font-style="normal" text-decoration="none" text-anchor="start" dominant-baseline="central" font-family="'Consolas','Courier New',monospace"><tspan x="-158" dy="0">📅 2024. 05. 05 (일)</tspan></text><rect x="-160" y="-10" width="320" height="20" fill="transparent"></rect></g></g><g><g transform="translate(892, 23)" style="cursor: grab;"><text x="0" y="-3.5999999999999996" text-anchor="middle" font-size="7" font-family="monospace" font-weight="normal" font-style="normal" text-decoration="none" fill="#64748b"></text><text x="0" y="6.6000000000000005" text-anchor="middle" font-size="19" fill="#67e8f9" font-family="monospace" style="filter: drop-shadow(rgba(103, 232, 249, 0.667) 0px 0px 4px);">06</text><text x="12" y="6.6000000000000005" text-anchor="end" font-size="6" fill="#4a9eff" font-family="monospace"></text><rect x="-16" y="-12" width="32" height="24" fill="transparent"></rect></g></g><g><g transform="translate(917, 23)" style="cursor: grab;"><text x="0" y="0" font-size="16" fill="#cbd5e1" font-weight="bold" font-style="normal" text-decoration="none" text-anchor="middle" dominant-baseline="central" font-family="'Consolas','Courier New',monospace"><tspan x="0" dy="0">:</tspan></text><rect x="-60" y="-12" width="120" height="24" fill="transparent"></rect></g></g><g><g transform="translate(942, 23)" style="cursor: grab;"><text x="0" y="-3.5999999999999996" text-anchor="middle" font-size="7" font-family="monospace" font-weight="normal" font-style="normal" text-decoration="none" fill="#64748b"></text><text x="0" y="6.6000000000000005" text-anchor="middle" font-size="19" fill="#67e8f9" font-family="monospace" style="filter: drop-shadow(rgba(103, 232, 249, 0.667) 0px 0px 4px);">00</text><text x="12" y="6.6000000000000005" text-anchor="end" font-size="6" fill="#4a9eff" font-family="monospace"></text><rect x="-16" y="-12" width="32" height="24" fill="transparent"></rect></g></g><g><g transform="translate(1082, 22)" style="cursor: grab;"><text x="-42" y="0" font-size="11" fill="#a7f3d0" font-weight="normal" font-style="normal" text-decoration="none" text-anchor="start" dominant-baseline="central" font-family="'Consolas','Courier New',monospace"><tspan x="-42" dy="0">일광량</tspan></text><rect x="-44" y="-10" width="88" height="20" fill="transparent"></rect></g></g><g><g transform="translate(1170, 24)" style="cursor: grab;"><text x="0" y="-5.3999999999999995" text-anchor="middle" font-size="7" font-family="monospace" font-weight="normal" font-style="normal" text-decoration="none" fill="#64748b"></text><text x="0" y="9.9" text-anchor="middle" font-size="26" fill="#f0fdff" font-family="monospace" style="filter: drop-shadow(rgba(240, 253, 255, 0.667) 0px 0px 4px);">72.0</text><text x="50" y="9.9" text-anchor="end" font-size="6" fill="#4a9eff" font-family="monospace">klux</text><rect x="-54" y="-18" width="108" height="36" fill="transparent"></rect></g></g><g><g transform="translate(24, 120)" style="cursor: grab;"><rect x="0" y="0" width="210" height="130" rx="3" fill="rgb(2,10,14)" fill-opacity="0.1" stroke="#22d3ee" stroke-width="1.5"></rect><rect x="0" y="0" width="210" height="18" rx="3" fill="#22d3ee" opacity="0.18"></rect><rect x="0" y="18" width="210" height="1" fill="#22d3ee" opacity="0.4"></rect><text x="105" y="14" text-anchor="middle" font-size="11" font-family="'Consolas','Courier New',monospace" font-weight="bold" font-style="normal" text-decoration="none" fill="#a5f3fc">존1 · 토마토 A</text></g></g><g><g transform="translate(66, 178)" style="cursor: grab;"><text x="-38" y="0" font-size="13" fill="#7dd3fc" font-weight="bold" font-style="normal" text-decoration="none" text-anchor="start" dominant-baseline="central" font-family="'Consolas','Courier New',monospace"><tspan x="-38" dy="0">온도</tspan></text><rect x="-40" y="-10" width="80" height="20" fill="transparent"></rect></g></g><g><g transform="translate(174, 178)" style="cursor: grab;"><text x="0" y="-5.3999999999999995" text-anchor="middle" font-size="7" font-family="monospace" font-weight="normal" font-style="normal" text-decoration="none" fill="#64748b"></text><text x="0" y="9.9" text-anchor="middle" font-size="26" fill="#f0fdff" font-family="monospace" style="filter: drop-shadow(rgba(240, 253, 255, 0.667) 0px 0px 4px);">25.0</text><text x="50" y="9.9" text-anchor="end" font-size="6" fill="#4a9eff" font-family="monospace">°C</text><rect x="-54" y="-18" width="108" height="36" fill="transparent"></rect></g></g><g><g transform="translate(66, 222)" style="cursor: grab;"><text x="-38" y="0" font-size="13" fill="#7dd3fc" font-weight="bold" font-style="normal" text-decoration="none" text-anchor="start" dominant-baseline="central" font-family="'Consolas','Courier New',monospace"><tspan x="-38" dy="0">습도</tspan></text><rect x="-40" y="-10" width="80" height="20" fill="transparent"></rect></g></g><g><g transform="translate(174, 222)" style="cursor: grab;"><text x="0" y="-5.3999999999999995" text-anchor="middle" font-size="7" font-family="monospace" font-weight="normal" font-style="normal" text-decoration="none" fill="#64748b"></text><text x="0" y="9.9" text-anchor="middle" font-size="26" fill="#f0fdff" font-family="monospace" style="filter: drop-shadow(rgba(240, 253, 255, 0.667) 0px 0px 4px);">64</text><text x="50" y="9.9" text-anchor="end" font-size="6" fill="#4a9eff" font-family="monospace">%</text><rect x="-54" y="-18" width="108" height="36" fill="transparent"></rect></g></g><g><g transform="translate(24, 300)" style="cursor: grab;"><rect x="0" y="0" width="210" height="130" rx="3" fill="rgb(2,10,14)" fill-opacity="0.1" stroke="#22d3ee" stroke-width="1.5"></rect><rect x="0" y="0" width="210" height="18" rx="3" fill="#22d3ee" opacity="0.18"></rect><rect x="0" y="18" width="210" height="1" fill="#22d3ee" opacity="0.4"></rect><text x="105" y="14" text-anchor="middle" font-size="11" font-family="'Consolas','Courier New',monospace" font-weight="bold" font-style="normal" text-decoration="none" fill="#a5f3fc">존2 · 토마토 B</text></g></g><g><g transform="translate(66, 358)" style="cursor: grab;"><text x="-38" y="0" font-size="13" fill="#7dd3fc" font-weight="bold" font-style="normal" text-decoration="none" text-anchor="start" dominant-baseline="central" font-family="'Consolas','Courier New',monospace"><tspan x="-38" dy="0">온도</tspan></text><rect x="-40" y="-10" width="80" height="20" fill="transparent"></rect></g></g><g><g transform="translate(174, 358)" style="cursor: grab;"><text x="0" y="-5.3999999999999995" text-anchor="middle" font-size="7" font-family="monospace" font-weight="normal" font-style="normal" text-decoration="none" fill="#64748b"></text><text x="0" y="9.9" text-anchor="middle" font-size="26" fill="#f0fdff" font-family="monospace" style="filter: drop-shadow(rgba(240, 253, 255, 0.667) 0px 0px 4px);">26.0</text><text x="50" y="9.9" text-anchor="end" font-size="6" fill="#4a9eff" font-family="monospace">°C</text><rect x="-54" y="-18" width="108" height="36" fill="transparent"></rect></g></g><g><g transform="translate(66, 402)" style="cursor: grab;"><text x="-38" y="0" font-size="13" fill="#7dd3fc" font-weight="bold" font-style="normal" text-decoration="none" text-anchor="start" dominant-baseline="central" font-family="'Consolas','Courier New',monospace"><tspan x="-38" dy="0">습도</tspan></text><rect x="-40" y="-10" width="80" height="20" fill="transparent"></rect></g></g><g><g transform="translate(174, 402)" style="cursor: grab;"><text x="0" y="-5.3999999999999995" text-anchor="middle" font-size="7" font-family="monospace" font-weight="normal" font-style="normal" text-decoration="none" fill="#64748b"></text><text x="0" y="9.9" text-anchor="middle" font-size="26" fill="#f0fdff" font-family="monospace" style="filter: drop-shadow(rgba(240, 253, 255, 0.667) 0px 0px 4px);">61</text><text x="50" y="9.9" text-anchor="end" font-size="6" fill="#4a9eff" font-family="monospace">%</text><rect x="-54" y="-18" width="108" height="36" fill="transparent"></rect></g></g><g><g transform="translate(1046, 120)" style="cursor: grab;"><rect x="0" y="0" width="210" height="130" rx="3" fill="rgb(2,10,14)" fill-opacity="0.1" stroke="#22d3ee" stroke-width="1.5"></rect><rect x="0" y="0" width="210" height="18" rx="3" fill="#22d3ee" opacity="0.18"></rect><rect x="0" y="18" width="210" height="1" fill="#22d3ee" opacity="0.4"></rect><text x="105" y="14" text-anchor="middle" font-size="11" font-family="'Consolas','Courier New',monospace" font-weight="bold" font-style="normal" text-decoration="none" fill="#a5f3fc">존4 · 파프리카 B</text></g></g><g><g transform="translate(1088, 178)" style="cursor: grab;"><text x="-38" y="0" font-size="13" fill="#7dd3fc" font-weight="bold" font-style="normal" text-decoration="none" text-anchor="start" dominant-baseline="central" font-family="'Consolas','Courier New',monospace"><tspan x="-38" dy="0">온도</tspan></text><rect x="-40" y="-10" width="80" height="20" fill="transparent"></rect></g></g><g><g transform="translate(1196, 178)" style="cursor: grab;"><text x="0" y="-5.3999999999999995" text-anchor="middle" font-size="7" font-family="monospace" font-weight="normal" font-style="normal" text-decoration="none" fill="#64748b"></text><text x="0" y="9.9" text-anchor="middle" font-size="26" fill="#f0fdff" font-family="monospace" style="filter: drop-shadow(rgba(240, 253, 255, 0.667) 0px 0px 4px);">24.0</text><text x="50" y="9.9" text-anchor="end" font-size="6" fill="#4a9eff" font-family="monospace">°C</text><rect x="-54" y="-18" width="108" height="36" fill="transparent"></rect></g></g><g><g transform="translate(1088, 222)" style="cursor: grab;"><text x="-38" y="0" font-size="13" fill="#7dd3fc" font-weight="bold" font-style="normal" text-decoration="none" text-anchor="start" dominant-baseline="central" font-family="'Consolas','Courier New',monospace"><tspan x="-38" dy="0">습도</tspan></text><rect x="-40" y="-10" width="80" height="20" fill="transparent"></rect></g></g><g><g transform="translate(1196, 222)" style="cursor: grab;"><text x="0" y="-5.3999999999999995" text-anchor="middle" font-size="7" font-family="monospace" font-weight="normal" font-style="normal" text-decoration="none" fill="#64748b"></text><text x="0" y="9.9" text-anchor="middle" font-size="26" fill="#f0fdff" font-family="monospace" style="filter: drop-shadow(rgba(240, 253, 255, 0.667) 0px 0px 4px);">62</text><text x="50" y="9.9" text-anchor="end" font-size="6" fill="#4a9eff" font-family="monospace">%</text><rect x="-54" y="-18" width="108" height="36" fill="transparent"></rect></g></g><g><g transform="translate(1046, 300)" style="cursor: grab;"><rect x="0" y="0" width="210" height="130" rx="3" fill="rgb(2,10,14)" fill-opacity="0.1" stroke="#22d3ee" stroke-width="1.5"></rect><rect x="0" y="0" width="210" height="18" rx="3" fill="#22d3ee" opacity="0.18"></rect><rect x="0" y="18" width="210" height="1" fill="#22d3ee" opacity="0.4"></rect><text x="105" y="14" text-anchor="middle" font-size="11" font-family="'Consolas','Courier New',monospace" font-weight="bold" font-style="normal" text-decoration="none" fill="#a5f3fc">존3 · 파프리카 A</text></g></g><g><g transform="translate(1088, 358)" style="cursor: grab;"><text x="-38" y="0" font-size="13" fill="#7dd3fc" font-weight="bold" font-style="normal" text-decoration="none" text-anchor="start" dominant-baseline="central" font-family="'Consolas','Courier New',monospace"><tspan x="-38" dy="0">온도</tspan></text><rect x="-40" y="-10" width="80" height="20" fill="transparent"></rect></g></g><g><g transform="translate(1196, 358)" style="cursor: grab;"><text x="0" y="-5.3999999999999995" text-anchor="middle" font-size="7" font-family="monospace" font-weight="normal" font-style="normal" text-decoration="none" fill="#64748b"></text><text x="0" y="9.9" text-anchor="middle" font-size="26" fill="#f0fdff" font-family="monospace" style="filter: drop-shadow(rgba(240, 253, 255, 0.667) 0px 0px 4px);">25.0</text><text x="50" y="9.9" text-anchor="end" font-size="6" fill="#4a9eff" font-family="monospace">°C</text><rect x="-54" y="-18" width="108" height="36" fill="transparent"></rect></g></g><g><g transform="translate(1088, 402)" style="cursor: grab;"><text x="-38" y="0" font-size="13" fill="#7dd3fc" font-weight="bold" font-style="normal" text-decoration="none" text-anchor="start" dominant-baseline="central" font-family="'Consolas','Courier New',monospace"><tspan x="-38" dy="0">습도</tspan></text><rect x="-40" y="-10" width="80" height="20" fill="transparent"></rect></g></g><g><g transform="translate(1196, 402)" style="cursor: grab;"><text x="0" y="-5.3999999999999995" text-anchor="middle" font-size="7" font-family="monospace" font-weight="normal" font-style="normal" text-decoration="none" fill="#64748b"></text><text x="0" y="9.9" text-anchor="middle" font-size="26" fill="#f0fdff" font-family="monospace" style="filter: drop-shadow(rgba(240, 253, 255, 0.667) 0px 0px 4px);">66</text><text x="50" y="9.9" text-anchor="end" font-size="6" fill="#4a9eff" font-family="monospace">%</text><rect x="-54" y="-18" width="108" height="36" fill="transparent"></rect></g></g><g><g transform="translate(470, 452)" style="cursor: grab;"><rect x="0" y="0" width="340" height="262" rx="3" fill="rgb(2,10,14)" fill-opacity="0.1" stroke="#22d3ee" stroke-width="1.5"></rect><rect x="0" y="0" width="340" height="18" rx="3" fill="#22d3ee" opacity="0.18"></rect><rect x="0" y="18" width="340" height="1" fill="#22d3ee" opacity="0.4"></rect><text x="170" y="14" text-anchor="middle" font-size="11" font-family="'Consolas','Courier New',monospace" font-weight="bold" font-style="normal" text-decoration="none" fill="#a5f3fc">환경 제어  ·  목표값 클릭 입력 → 자동 제어</text></g></g><g><g transform="translate(564, 484)" style="cursor: grab;"><text x="-70" y="0" font-size="13" fill="#7dd3fc" font-weight="bold" font-style="normal" text-decoration="none" text-anchor="start" dominant-baseline="central" font-family="'Consolas','Courier New',monospace"><tspan x="-70" dy="0">목표 온도</tspan></text><rect x="-72" y="-10" width="144" height="20" fill="transparent"></rect></g></g><g><g transform="translate(672, 484)" style="cursor: grab;"><rect x="-34" y="-15" width="68" height="30" rx="1" fill="#0a0a0a" stroke="#52525b" stroke-width="2"></rect><text x="0" y="-4.5" text-anchor="middle" font-size="7" font-family="monospace" font-weight="normal" font-style="normal" text-decoration="none" fill="#64748b"></text><text x="0" y="8.25" text-anchor="middle" font-size="22" fill="#fde047" font-family="monospace" style="filter: drop-shadow(rgba(253, 224, 71, 0.667) 0px 0px 4px);">23</text><text x="30" y="8.25" text-anchor="end" font-size="6" fill="#4a9eff" font-family="monospace">°C</text><rect x="-34" y="-15" width="68" height="30" fill="transparent"></rect></g></g><g><g transform="translate(732, 484)" style="cursor: grab;"><text x="-38" y="0" font-size="12" fill="#94a3b8" font-weight="normal" font-style="normal" text-decoration="none" text-anchor="start" dominant-baseline="central" font-family="'Consolas','Courier New',monospace"><tspan x="-38" dy="0">°C</tspan></text><rect x="-40" y="-10" width="80" height="20" fill="transparent"></rect></g></g><g><g transform="translate(564, 512)" style="cursor: grab;"><text x="-70" y="0" font-size="13" fill="#7dd3fc" font-weight="bold" font-style="normal" text-decoration="none" text-anchor="start" dominant-baseline="central" font-family="'Consolas','Courier New',monospace"><tspan x="-70" dy="0">목표 습도</tspan></text><rect x="-72" y="-10" width="144" height="20" fill="transparent"></rect></g></g><g><g transform="translate(672, 512)" style="cursor: grab;"><rect x="-34" y="-15" width="68" height="30" rx="1" fill="#0a0a0a" stroke="#52525b" stroke-width="2"></rect><text x="0" y="-4.5" text-anchor="middle" font-size="7" font-family="monospace" font-weight="normal" font-style="normal" text-decoration="none" fill="#64748b"></text><text x="0" y="8.25" text-anchor="middle" font-size="22" fill="#fde047" font-family="monospace" style="filter: drop-shadow(rgba(253, 224, 71, 0.667) 0px 0px 4px);">62</text><text x="30" y="8.25" text-anchor="end" font-size="6" fill="#4a9eff" font-family="monospace">%</text><rect x="-34" y="-15" width="68" height="30" fill="transparent"></rect></g></g><g><g transform="translate(732, 512)" style="cursor: grab;"><text x="-38" y="0" font-size="12" fill="#94a3b8" font-weight="normal" font-style="normal" text-decoration="none" text-anchor="start" dominant-baseline="central" font-family="'Consolas','Courier New',monospace"><tspan x="-38" dy="0">%</tspan></text><rect x="-40" y="-10" width="80" height="20" fill="transparent"></rect></g></g><g><g transform="translate(640,532)" style="cursor: grab;"><g><g><path d="M-150,-1 L150,1" fill="none" fill-opacity="1" stroke="#1e3a5f" stroke-width="1" stroke-opacity="1" stroke-linecap="round" stroke-linejoin="round"></path></g></g></g></g><g><g transform="translate(552, 552)" style="cursor: grab;"><text x="-58" y="0" font-size="13" fill="#e2e8f0" font-weight="bold" font-style="normal" text-decoration="none" text-anchor="start" dominant-baseline="central" font-family="'Consolas','Courier New',monospace"><tspan x="-58" dy="0">냉각휀</tspan></text><rect x="-60" y="-10" width="120" height="20" fill="transparent"></rect></g></g><g><g transform="translate(660, 552)" style="cursor: grab;"><rect x="-32" y="-20" width="64" height="40" rx="4" fill="#1a202c" stroke="#2d3748" stroke-width="1"></rect><g><rect x="-16" y="-11" width="32" height="14" rx="7" fill="#3f1d1d" stroke="#7f1d1d" stroke-width="1"></rect><circle cx="-7" cy="-4" r="6" fill="#9ca3af"></circle></g><text x="0" y="15" text-anchor="middle" font-size="7" font-family="monospace" font-weight="normal" font-style="normal" text-decoration="none" fill="#94a3b8"></text><rect x="-32" y="-20" width="64" height="40" fill="transparent"></rect></g></g><g><g transform="translate(740, 552)" style="cursor: grab;"><rect x="-32" y="-20" width="64" height="40" rx="4" fill="#1a202c" stroke="#2d3748" stroke-width="1"></rect><circle cx="0" cy="-4" r="8" fill="#374151"></circle><text x="0" y="14" text-anchor="middle" font-size="7" font-family="monospace" font-weight="normal" font-style="normal" text-decoration="none" fill="#94a3b8"></text><rect x="-32" y="-20" width="64" height="40" fill="transparent"></rect></g></g><g><g transform="translate(552, 591)" style="cursor: grab;"><text x="-58" y="0" font-size="13" fill="#e2e8f0" font-weight="bold" font-style="normal" text-decoration="none" text-anchor="start" dominant-baseline="central" font-family="'Consolas','Courier New',monospace"><tspan x="-58" dy="0">냉동기</tspan></text><rect x="-60" y="-10" width="120" height="20" fill="transparent"></rect></g></g><g><g transform="translate(660, 591)" style="cursor: grab;"><rect x="-32" y="-20" width="64" height="40" rx="4" fill="#1a202c" stroke="#2d3748" stroke-width="1"></rect><g><rect x="-16" y="-11" width="32" height="14" rx="7" fill="#3f1d1d" stroke="#7f1d1d" stroke-width="1"></rect><circle cx="-7" cy="-4" r="6" fill="#9ca3af"></circle></g><text x="0" y="15" text-anchor="middle" font-size="7" font-family="monospace" font-weight="normal" font-style="normal" text-decoration="none" fill="#94a3b8"></text><rect x="-32" y="-20" width="64" height="40" fill="transparent"></rect></g></g><g><g transform="translate(740, 591)" style="cursor: grab;"><rect x="-32" y="-20" width="64" height="40" rx="4" fill="#1a202c" stroke="#2d3748" stroke-width="1"></rect><circle cx="0" cy="-4" r="8" fill="#374151"></circle><text x="0" y="14" text-anchor="middle" font-size="7" font-family="monospace" font-weight="normal" font-style="normal" text-decoration="none" fill="#94a3b8"></text><rect x="-32" y="-20" width="64" height="40" fill="transparent"></rect></g></g><g><g transform="translate(552, 630)" style="cursor: grab;"><text x="-58" y="0" font-size="13" fill="#e2e8f0" font-weight="bold" font-style="normal" text-decoration="none" text-anchor="start" dominant-baseline="central" font-family="'Consolas','Courier New',monospace"><tspan x="-58" dy="0">히터</tspan></text><rect x="-60" y="-10" width="120" height="20" fill="transparent"></rect></g></g><g><g transform="translate(660, 630)" style="cursor: grab;"><rect x="-32" y="-20" width="64" height="40" rx="4" fill="#1a202c" stroke="#2d3748" stroke-width="1"></rect><g><rect x="-16" y="-11" width="32" height="14" rx="7" fill="#3f1d1d" stroke="#7f1d1d" stroke-width="1"></rect><circle cx="-7" cy="-4" r="6" fill="#9ca3af"></circle></g><text x="0" y="15" text-anchor="middle" font-size="7" font-family="monospace" font-weight="normal" font-style="normal" text-decoration="none" fill="#94a3b8"></text><rect x="-32" y="-20" width="64" height="40" fill="transparent"></rect></g></g><g><g transform="translate(740, 630)" style="cursor: grab;"><rect x="-32" y="-20" width="64" height="40" rx="4" fill="#1a202c" stroke="#2d3748" stroke-width="1"></rect><circle cx="0" cy="-4" r="8" fill="#374151"></circle><text x="0" y="14" text-anchor="middle" font-size="7" font-family="monospace" font-weight="normal" font-style="normal" text-decoration="none" fill="#94a3b8"></text><rect x="-32" y="-20" width="64" height="40" fill="transparent"></rect></g></g><g><g transform="translate(552, 669)" style="cursor: grab;"><text x="-58" y="0" font-size="13" fill="#e2e8f0" font-weight="bold" font-style="normal" text-decoration="none" text-anchor="start" dominant-baseline="central" font-family="'Consolas','Courier New',monospace"><tspan x="-58" dy="0">물 분사</tspan></text><rect x="-60" y="-10" width="120" height="20" fill="transparent"></rect></g></g><g><g transform="translate(660, 669)" style="cursor: grab;"><rect x="-32" y="-20" width="64" height="40" rx="4" fill="#1a202c" stroke="#2d3748" stroke-width="1"></rect><g><rect x="-16" y="-11" width="32" height="14" rx="7" fill="#3f1d1d" stroke="#7f1d1d" stroke-width="1"></rect><circle cx="-7" cy="-4" r="6" fill="#9ca3af"></circle></g><text x="0" y="15" text-anchor="middle" font-size="7" font-family="monospace" font-weight="normal" font-style="normal" text-decoration="none" fill="#94a3b8"></text><rect x="-32" y="-20" width="64" height="40" fill="transparent"></rect></g></g><g><g transform="translate(740, 669)" style="cursor: grab;"><rect x="-32" y="-20" width="64" height="40" rx="4" fill="#1a202c" stroke="#2d3748" stroke-width="1"></rect><circle cx="0" cy="-4" r="8" fill="#374151"></circle><text x="0" y="14" text-anchor="middle" font-size="7" font-family="monospace" font-weight="normal" font-style="normal" text-decoration="none" fill="#94a3b8"></text><rect x="-32" y="-20" width="64" height="40" fill="transparent"></rect></g></g><g><g transform="translate(24, 610)" style="cursor: grab;"><rect x="0" y="0" width="320" height="110" rx="3" fill="rgb(3,12,8)" fill-opacity="0.1" stroke="#166534" stroke-width="1.5"></rect></g></g><g><g transform="translate(182, 636)" style="cursor: grab;"><text x="-138" y="0" font-size="12" fill="#86efac" font-weight="bold" font-style="normal" text-decoration="none" text-anchor="start" dominant-baseline="central" font-family="'Consolas','Courier New',monospace"><tspan x="-138" dy="0">AI 능동 감시 시연</tspan></text><rect x="-140" y="-10" width="280" height="20" fill="transparent"></rect></g></g><g><g transform="translate(182, 660)" style="cursor: grab;"><text x="-138" y="0" font-size="10" fill="#a7f3d0" font-weight="normal" font-style="normal" text-decoration="none" text-anchor="start" dominant-baseline="central" font-family="'Consolas','Courier New',monospace"><tspan x="-138" dy="0">① 좌측 "능동 감시 ON"</tspan></text><rect x="-140" y="-10" width="280" height="20" fill="transparent"></rect></g></g><g><g transform="translate(182, 680)" style="cursor: grab;"><text x="-138" y="0" font-size="10" fill="#fcd34d" font-weight="normal" font-style="normal" text-decoration="none" text-anchor="start" dominant-baseline="central" font-family="'Consolas','Courier New',monospace"><tspan x="-138" dy="0">② 히터를 켜보세요 →</tspan></text><rect x="-140" y="-10" width="280" height="20" fill="transparent"></rect></g></g><g><g transform="translate(182, 698)" style="cursor: grab;"><text x="-138" y="0" font-size="10" fill="#fcd34d" font-weight="normal" font-style="normal" text-decoration="none" text-anchor="start" dominant-baseline="central" font-family="'Consolas','Courier New',monospace"><tspan x="-138" dy="0">온도 상승 → 경보 → AI가 조치 안내</tspan></text><rect x="-140" y="-10" width="280" height="20" fill="transparent"></rect></g></g></svg>